<?xml version="1.0" encoding="UTF-8"?>
<svg xmlns="http://www.w3.org/2000/svg" xmlns:xlink="http://www.w3.org/1999/xlink" width="3768" height="1488" viewBox="0 0 3768 1488">
<path fill-rule="nonzero" fill="rgb(99.609375%, 99.609375%, 99.609375%)" fill-opacity="1" d="M 0 0 L 0 1488 L 3768 1488 C 3768 992 3768 496 3768 0 L 0 0 "/>
<path fill-rule="nonzero" fill="rgb(0%, 0%, 0%)" fill-opacity="1" d="M 2205.480469 414.210938 L 1933.441406 571.5 L 1935.140625 568.550781 L 1935.339844 882.789062 L 1933.628906 879.84375 L 2205.859375 1036.796875 L 2202.460938 1036.800781 L 2474.5 879.511719 L 2472.800781 882.460938 L 2472.609375 568.222656 L 2474.308594 571.167969 L 2202.078125 414.210938 L 2205.480469 414.210938 M 2202.078125 408.320312 C 2203.128906 407.710938 2204.429688 407.710938 2205.480469 408.320312 L 2477.710938 565.273438 C 2478.769531 565.878906 2479.410156 567.003906 2479.410156 568.21875 L 2479.609375 882.457031 C 2479.609375 883.671875 2478.960938 884.796875 2477.910156 885.40625 L 2205.871094 1042.691406 C 2204.808594 1043.300781 2203.519531 1043.300781 2202.460938 1042.695312 L 1930.230469 885.742188 C 1929.179688 885.132812 1928.53125 884.011719 1928.53125 882.792969 L 1928.339844 568.554688 C 1928.339844 567.339844 1928.988281 566.214844 1930.039062 565.605469 Z M 2202.078125 408.320312 "/>
<path fill-rule="nonzero" fill="rgb(0%, 0%, 0%)" fill-opacity="1" d="M 1935.140625 568.550781 L 1935.140625 568.554688 L 1933.441406 565.609375 L 2205.671875 722.558594 L 2202.269531 722.558594 L 2474.308594 565.273438 C 2475.941406 564.332031 2478.019531 564.890625 2478.960938 566.515625 C 2479.898438 568.144531 2479.339844 570.226562 2477.71875 571.167969 L 2205.679688 728.453125 C 2204.628906 729.0625 2203.328125 729.0625 2202.269531 728.453125 L 1930.039062 571.503906 C 1928.988281 570.898438 1928.339844 569.773438 1928.339844 568.558594 L 1928.339844 568.554688 C 1928.339844 566.675781 1929.859375 565.152344 1931.738281 565.148438 C 1933.621094 565.148438 1935.140625 566.671875 1935.140625 568.550781 Z M 1935.140625 568.550781 "/>
<path fill-rule="nonzero" fill="rgb(0%, 0%, 0%)" fill-opacity="1" d="M 2207.378906 725.503906 L 2207.378906 725.507812 L 2207.570312 1039.742188 C 2207.570312 1041.621094 2206.039062 1043.148438 2204.160156 1043.148438 C 2202.289062 1043.148438 2200.761719 1041.625 2200.761719 1039.746094 L 2200.570312 725.511719 L 2200.570312 725.507812 C 2200.570312 723.628906 2202.089844 722.105469 2203.96875 722.101562 C 2205.851562 722.101562 2207.378906 723.625 2207.378906 725.503906 Z M 2207.378906 725.503906 "/>
<path fill-rule="nonzero" fill="rgb(0%, 0%, 0%)" fill-opacity="1" d="M 2845.96875 423.351562 L 2573.929688 580.636719 L 2581.128906 568.15625 L 2581.320312 882.394531 L 2574.109375 869.925781 L 2846.339844 1026.878906 L 2831.929688 1026.886719 L 3103.96875 869.601562 L 3096.78125 882.082031 L 3096.589844 567.839844 L 3103.800781 580.3125 L 2831.570312 423.359375 L 2845.96875 423.351562 M 2831.558594 398.410156 C 2836.011719 395.828125 2841.5 395.828125 2845.960938 398.398438 L 3118.191406 555.355469 C 3122.640625 557.925781 3125.390625 562.679688 3125.398438 567.824219 L 3125.589844 882.0625 C 3125.589844 887.207031 3122.851562 891.964844 3118.390625 894.542969 L 2846.351562 1051.828125 C 2841.898438 1054.402344 2836.410156 1054.40625 2831.949219 1051.835938 L 2559.71875 894.882812 C 2555.261719 892.3125 2552.511719 887.558594 2552.511719 882.414062 L 2552.320312 568.175781 C 2552.320312 563.027344 2555.058594 558.269531 2559.519531 555.695312 Z M 2831.558594 398.410156 "/>
<path fill-rule="nonzero" fill="rgb(0%, 0%, 0%)" fill-opacity="1" d="M 2581.128906 568.15625 L 2581.128906 568.160156 L 2573.921875 555.6875 L 2846.148438 712.640625 L 2831.75 712.648438 L 3103.789062 555.363281 C 3110.671875 551.382812 3119.480469 553.734375 3123.46875 560.625 C 3127.449219 567.511719 3125.089844 576.320312 3118.199219 580.300781 L 2846.160156 737.589844 C 2841.710938 740.164062 2836.21875 740.167969 2831.761719 737.597656 L 2559.53125 580.648438 C 2555.070312 578.078125 2552.320312 573.324219 2552.320312 568.175781 C 2552.320312 560.21875 2558.761719 553.765625 2566.71875 553.761719 C 2574.671875 553.757812 2581.128906 560.203125 2581.128906 568.15625 Z M 2581.128906 568.15625 "/>
<path fill-rule="nonzero" fill="rgb(0%, 0%, 0%)" fill-opacity="1" d="M 2853.359375 725.109375 L 2853.359375 725.113281 L 2853.550781 1039.347656 C 2853.550781 1047.304688 2847.109375 1053.753906 2839.148438 1053.761719 C 2831.199219 1053.765625 2824.738281 1047.320312 2824.738281 1039.367188 L 2824.550781 725.128906 C 2824.550781 717.171875 2830.988281 710.71875 2838.949219 710.714844 C 2846.898438 710.710938 2853.351562 717.15625 2853.359375 725.109375 Z M 2853.359375 725.109375 "/>
<path fill-rule="nonzero" fill="rgb(0%, 0%, 0%)" fill-opacity="1" d="M 3473.75 413.421875 C 3473.578125 413.421875 3473.410156 413.46875 3473.25 413.558594 L 3208.019531 566.914062 C 3207.628906 567.136719 3207.429688 567.597656 3207.550781 568.035156 C 3207.640625 568.367188 3207.890625 568.625 3208.210938 568.726562 L 3208.171875 568.726562 L 3473.441406 721.667969 C 3473.589844 721.757812 3473.761719 721.800781 3473.929688 721.800781 C 3474.109375 721.800781 3474.28125 721.753906 3474.429688 721.667969 C 3474.429688 721.664062 3474.441406 721.664062 3474.441406 721.664062 L 3474.429688 721.664062 L 3739.671875 568.316406 C 3739.980469 568.136719 3740.171875 567.808594 3740.171875 567.449219 C 3740.171875 567.09375 3739.980469 566.761719 3739.671875 566.585938 L 3474.25 413.558594 C 3474.089844 413.46875 3473.921875 413.421875 3473.75 413.421875 Z M 3473.75 413.421875 "/>
<path fill-rule="nonzero" fill="rgb(0%, 0%, 0%)" fill-opacity="1" d="M 3742.578125 572.34375 C 3742.398438 572.34375 3742.230469 572.390625 3742.078125 572.476562 L 3476.839844 725.828125 C 3476.53125 726.007812 3476.339844 726.335938 3476.339844 726.691406 L 3476.53125 1033.074219 C 3476.53125 1033.429688 3476.71875 1033.757812 3477.03125 1033.9375 C 3477.179688 1034.023438 3477.351562 1034.070312 3477.519531 1034.070312 C 3477.691406 1034.070312 3477.871094 1034.023438 3478.019531 1033.9375 L 3743.261719 880.585938 C 3743.570312 880.40625 3743.761719 880.078125 3743.761719 879.722656 L 3743.761719 879.71875 L 3743.570312 573.339844 C 3743.570312 572.984375 3743.378906 572.65625 3743.070312 572.476562 C 3742.921875 572.386719 3742.75 572.34375 3742.578125 572.34375 Z M 3742.578125 572.34375 "/>
<path fill-rule="nonzero" fill="rgb(0%, 0%, 0%)" fill-opacity="1" d="M 3205.109375 572.675781 C 3204.941406 572.675781 3204.769531 572.71875 3204.609375 572.808594 C 3204.308594 572.988281 3204.121094 573.316406 3204.121094 573.671875 L 3204.300781 880.050781 C 3204.300781 880.40625 3204.488281 880.734375 3204.800781 880.914062 L 3470.21875 1033.941406 C 3470.378906 1034.03125 3470.550781 1034.074219 3470.71875 1034.074219 C 3470.890625 1034.074219 3471.058594 1034.027344 3471.21875 1033.941406 C 3471.53125 1033.761719 3471.71875 1033.433594 3471.71875 1033.074219 L 3471.53125 726.695312 C 3471.53125 726.339844 3471.339844 726.011719 3471.03125 725.832031 L 3205.609375 572.808594 C 3205.460938 572.71875 3205.289062 572.675781 3205.109375 572.675781 Z M 3205.109375 572.675781 "/>
<path fill-rule="nonzero" fill="rgb(0%, 0%, 0%)" fill-opacity="1" d="M 342.878906 432.820312 L 380.953125 454.769531 L 376.621094 462.28125 L 338.546875 440.339844 Z M 384.761719 456.96875 L 422.835938 478.921875 L 418.503906 486.429688 L 380.429688 464.480469 Z M 426.644531 481.109375 L 464.71875 503.066406 L 460.386719 510.582031 L 422.3125 488.628906 Z M 468.523438 505.261719 L 506.597656 527.210938 L 502.265625 534.726562 L 464.191406 512.773438 Z M 510.40625 529.40625 L 548.480469 551.359375 L 544.148438 558.875 L 506.074219 536.921875 Z M 552.289062 553.554688 L 573.230469 565.628906 C 574.570312 566.402344 575.398438 567.832031 575.398438 569.382812 L 575.414062 589.160156 L 566.738281 589.164062 L 566.726562 569.386719 L 568.898438 573.140625 L 547.957031 561.070312 Z M 575.414062 593.554688 L 575.441406 637.503906 L 566.765625 637.507812 L 566.742188 593.558594 Z M 575.445312 641.898438 L 575.46875 685.847656 L 566.796875 685.855469 L 566.769531 641.90625 Z M 575.472656 690.242188 L 575.5 734.195312 L 566.828125 734.199219 L 566.800781 690.25 Z M 575.503906 738.589844 L 575.53125 782.539062 L 566.855469 782.542969 L 566.828125 738.59375 Z M 575.53125 786.933594 L 575.558594 830.882812 L 566.886719 830.886719 L 566.859375 786.9375 Z M 575.5625 835.277344 L 575.589844 879.226562 L 566.914062 879.230469 L 566.886719 835.28125 Z M 573.425781 887.378906 L 535.378906 909.375 L 531.035156 901.867188 L 569.082031 879.871094 Z M 531.570312 911.578125 L 493.523438 933.574219 L 489.183594 926.066406 L 527.230469 904.066406 Z M 489.71875 935.773438 L 451.671875 957.773438 L 447.332031 950.261719 L 485.378906 928.265625 Z M 447.867188 959.972656 L 409.820312 981.96875 L 405.476562 974.460938 L 443.527344 952.464844 Z M 406.015625 984.167969 L 367.964844 1006.167969 L 363.625 998.660156 L 401.671875 976.660156 Z M 364.164062 1008.367188 L 326.113281 1030.367188 L 321.773438 1022.855469 L 359.820312 1000.859375 Z M 322.308594 1032.566406 L 301.386719 1044.664062 C 300.042969 1045.441406 298.390625 1045.441406 297.046875 1044.667969 L 279.914062 1034.789062 L 284.246094 1027.273438 L 301.378906 1037.152344 L 297.042969 1037.15625 L 317.96875 1025.058594 Z M 276.105469 1032.59375 L 238.03125 1010.640625 L 242.363281 1003.128906 L 280.4375 1025.078125 Z M 234.226562 1008.445312 L 196.148438 986.496094 L 200.480469 978.980469 L 238.558594 1000.933594 Z M 192.34375 984.300781 L 154.269531 962.347656 L 158.601562 954.835938 L 196.675781 976.785156 Z M 150.460938 960.152344 L 112.386719 938.203125 L 116.71875 930.6875 L 154.792969 952.640625 Z M 108.578125 936.007812 L 70.503906 914.054688 L 74.835938 906.542969 L 112.910156 928.492188 Z M 66.695312 911.859375 L 28.621094 889.910156 L 32.953125 882.394531 L 71.027344 904.347656 Z M 22.644531 883.960938 L 22.617188 840.007812 L 31.292969 840.003906 L 31.320312 883.953125 Z M 22.617188 835.613281 L 22.589844 791.664062 L 31.261719 791.660156 L 31.289062 835.609375 Z M 22.585938 787.269531 L 22.558594 743.320312 L 31.234375 743.316406 L 31.261719 787.265625 Z M 22.558594 738.925781 L 22.53125 694.976562 L 31.203125 694.972656 L 31.230469 738.921875 Z M 22.527344 690.582031 L 22.5 646.632812 L 31.175781 646.625 L 31.203125 690.574219 Z M 22.5 642.238281 L 22.472656 598.289062 L 31.144531 598.28125 L 31.171875 642.230469 Z M 22.46875 593.890625 L 22.453125 569.71875 C 22.453125 568.171875 23.277344 566.738281 24.621094 565.964844 L 41.742188 556.0625 L 46.082031 563.574219 L 28.960938 573.472656 L 31.128906 569.714844 L 31.144531 593.886719 Z M 45.546875 553.863281 L 83.59375 531.867188 L 87.9375 539.375 L 49.886719 561.371094 Z M 87.398438 529.664062 L 125.445312 507.667969 L 129.789062 515.175781 L 91.742188 537.175781 Z M 129.253906 505.46875 L 167.300781 483.46875 L 171.640625 490.980469 L 133.59375 512.976562 Z M 171.105469 481.269531 L 209.152344 459.269531 L 213.492188 466.78125 L 175.445312 488.777344 Z M 212.957031 457.070312 L 251.003906 435.070312 L 255.347656 442.578125 L 217.296875 464.578125 Z M 254.808594 432.871094 L 292.859375 410.871094 L 297.199219 418.390625 L 259.152344 440.378906 Z M 300.996094 408.679688 L 339.070312 430.621094 L 334.738281 438.140625 L 296.667969 416.191406 Z M 300.996094 408.679688 "/>
<path fill-rule="nonzero" fill="rgb(0%, 0%, 0%)" fill-opacity="1" d="M 70.835938 590.109375 L 108.910156 612.058594 L 104.578125 619.574219 L 66.503906 597.621094 Z M 112.71875 614.253906 L 150.792969 636.207031 L 146.460938 643.71875 L 108.386719 621.769531 Z M 154.601562 638.402344 L 192.675781 660.351562 L 188.34375 667.867188 L 150.269531 645.914062 Z M 196.484375 662.546875 L 234.558594 684.5 L 230.226562 692.011719 L 192.152344 670.0625 Z M 238.363281 686.695312 L 276.4375 708.644531 L 272.105469 716.160156 L 234.03125 694.207031 Z M 280.246094 710.839844 L 301.1875 722.914062 L 296.851562 722.917969 L 313.972656 713.015625 L 318.3125 720.527344 L 301.191406 730.425781 C 299.851562 731.199219 298.199219 731.203125 296.855469 730.429688 L 275.914062 718.355469 Z M 317.777344 710.816406 L 355.824219 688.820312 L 360.167969 696.328125 L 322.117188 718.328125 Z M 359.628906 686.621094 L 397.679688 664.621094 L 402.019531 672.128906 L 363.972656 694.128906 Z M 401.484375 662.421875 L 439.53125 640.421875 L 443.871094 647.933594 L 405.824219 669.929688 Z M 443.335938 638.222656 L 481.382812 616.226562 L 485.722656 623.734375 L 447.675781 645.734375 Z M 485.1875 614.027344 L 523.234375 592.027344 L 527.578125 599.535156 L 489.527344 621.535156 Z M 527.039062 589.828125 L 565.089844 567.832031 L 569.429688 575.339844 L 531.382812 597.335938 Z M 571.605469 573.6875 L 570.523438 565.082031 Z M 31.128906 569.714844 L 31.128906 569.71875 L 28.957031 565.964844 L 67.027344 587.914062 L 62.695312 595.425781 L 24.625 573.476562 C 23.28125 572.703125 22.453125 571.273438 22.453125 569.722656 L 22.453125 569.71875 Z M 31.128906 569.714844 "/>
<path fill-rule="nonzero" fill="rgb(0%, 0%, 0%)" fill-opacity="1" d="M 303.390625 779.042969 L 303.421875 826.652344 L 294.746094 826.660156 L 294.71875 779.046875 Z M 303.421875 831.414062 L 303.453125 879.027344 L 294.777344 879.03125 L 294.75 831.421875 Z M 303.453125 883.789062 L 303.484375 931.398438 L 294.808594 931.40625 L 294.78125 883.792969 Z M 303.488281 936.160156 L 303.515625 983.773438 L 294.84375 983.777344 L 294.8125 936.167969 Z M 303.519531 988.535156 L 303.546875 1036.144531 L 294.875 1036.152344 L 294.84375 988.539062 Z M 303.359375 726.667969 L 303.359375 726.671875 L 303.386719 774.28125 L 294.714844 774.285156 L 294.683594 726.675781 L 294.683594 726.671875 Z M 303.359375 726.667969 "/>
<path fill-rule="nonzero" fill="rgb(0%, 0%, 0%)" fill-opacity="1" d="M 1588.378906 418.289062 L 1595.398438 422.339844 L 1591.378906 429.320312 L 1584.351562 425.269531 Z M 1605.941406 428.410156 L 1612.960938 432.460938 L 1608.941406 439.449219 L 1601.910156 435.398438 Z M 1623.5 438.539062 L 1630.53125 442.589844 L 1626.5 449.570312 L 1619.480469 445.519531 Z M 1641.070312 448.671875 L 1648.089844 452.71875 L 1644.070312 459.699219 L 1637.039062 455.648438 Z M 1658.628906 458.789062 L 1665.660156 462.839844 L 1661.628906 469.828125 L 1654.601562 465.78125 Z M 1676.191406 468.921875 L 1683.21875 472.96875 L 1679.191406 479.949219 L 1672.171875 475.898438 Z M 1693.75 479.050781 L 1700.78125 483.101562 L 1696.75 490.078125 L 1689.730469 486.03125 Z M 1711.320312 489.171875 L 1718.339844 493.222656 L 1714.320312 500.203125 L 1707.289062 496.15625 Z M 1728.878906 499.296875 L 1735.910156 503.347656 L 1731.878906 510.332031 L 1724.859375 506.28125 Z M 1746.441406 509.425781 L 1753.46875 513.472656 L 1749.441406 520.457031 L 1742.421875 516.40625 Z M 1764.011719 519.550781 L 1771.039062 523.601562 L 1767.011719 530.582031 L 1759.980469 526.53125 Z M 1781.570312 529.675781 L 1788.601562 533.726562 L 1784.570312 540.707031 L 1777.550781 536.660156 Z M 1799.140625 539.800781 L 1806.160156 543.851562 L 1802.128906 550.835938 L 1795.109375 546.785156 Z M 1816.699219 549.929688 L 1823.71875 553.976562 L 1819.699219 560.960938 L 1812.671875 556.910156 Z M 1834.261719 560.054688 L 1841.289062 564.105469 L 1837.261719 571.085938 L 1830.230469 567.035156 Z M 1845.070312 578.742188 L 1845.070312 586.851562 L 1837.011719 586.855469 L 1837.011719 578.746094 Z M 1845.078125 599.015625 L 1845.078125 607.125 L 1837.019531 607.128906 L 1837.019531 599.019531 Z M 1845.089844 619.289062 L 1845.101562 627.398438 L 1837.039062 627.402344 L 1837.03125 619.292969 Z M 1845.101562 639.5625 L 1845.109375 647.671875 L 1837.050781 647.675781 L 1837.039062 639.566406 Z M 1845.121094 659.835938 L 1845.121094 667.945312 L 1837.058594 667.949219 L 1837.058594 659.839844 Z M 1845.128906 680.109375 L 1845.128906 688.21875 L 1837.070312 688.222656 L 1837.070312 680.113281 Z M 1845.140625 700.382812 L 1845.140625 708.492188 L 1837.089844 708.496094 L 1837.078125 700.386719 Z M 1845.148438 720.65625 L 1845.160156 728.765625 L 1837.101562 728.769531 L 1837.089844 720.660156 Z M 1845.160156 740.929688 L 1845.171875 749.039062 L 1837.109375 749.042969 L 1837.109375 740.933594 Z M 1845.179688 761.203125 L 1845.179688 769.3125 L 1837.121094 769.320312 L 1837.121094 761.207031 Z M 1845.191406 781.476562 L 1845.191406 789.585938 L 1837.128906 789.59375 L 1837.128906 781.484375 Z M 1845.199219 801.75 L 1845.210938 809.859375 L 1837.140625 809.867188 L 1837.140625 801.757812 Z M 1845.21875 822.023438 L 1845.21875 830.132812 L 1837.160156 830.140625 L 1837.148438 822.03125 Z M 1845.230469 842.296875 L 1845.230469 850.40625 L 1837.171875 850.414062 L 1837.160156 842.304688 Z M 1845.238281 862.570312 L 1845.238281 870.679688 L 1837.179688 870.6875 L 1837.179688 862.578125 Z M 1843.238281 886.335938 L 1836.21875 890.394531 L 1832.179688 883.417969 L 1839.199219 879.359375 Z M 1825.691406 896.484375 L 1818.671875 900.542969 L 1814.628906 893.566406 L 1821.648438 889.503906 Z M 1808.140625 906.628906 L 1801.109375 910.691406 L 1797.078125 903.710938 L 1804.101562 899.652344 Z M 1790.589844 916.777344 L 1783.558594 920.835938 L 1779.53125 913.859375 L 1786.550781 909.800781 Z M 1773.039062 926.925781 L 1766.011719 930.984375 L 1761.980469 924.007812 L 1769 919.949219 Z M 1755.480469 937.074219 L 1748.460938 941.132812 L 1744.429688 934.15625 L 1751.449219 930.09375 Z M 1737.929688 947.21875 L 1730.910156 951.28125 L 1726.878906 944.300781 L 1733.898438 940.242188 Z M 1720.378906 957.367188 L 1713.359375 961.425781 L 1709.320312 954.449219 L 1716.351562 950.390625 Z M 1702.828125 967.515625 L 1695.808594 971.574219 L 1691.769531 964.597656 L 1698.800781 960.539062 Z M 1685.28125 977.664062 L 1678.261719 981.722656 L 1674.21875 974.746094 L 1681.25 970.683594 Z M 1667.730469 987.808594 L 1660.710938 991.871094 L 1656.671875 984.890625 L 1663.691406 980.832031 Z M 1650.179688 997.957031 L 1643.160156 1002.015625 L 1639.121094 995.039062 L 1646.140625 990.980469 Z M 1632.628906 1008.105469 L 1625.609375 1012.164062 L 1621.570312 1005.1875 L 1628.589844 1001.128906 Z M 1615.070312 1018.253906 L 1608.058594 1022.3125 L 1604.019531 1015.332031 L 1611.039062 1011.273438 Z M 1597.519531 1028.398438 L 1590.5 1032.457031 L 1586.46875 1025.480469 L 1593.488281 1021.421875 Z M 1579.96875 1038.546875 L 1572.949219 1042.605469 L 1568.921875 1035.628906 L 1575.941406 1031.570312 Z M 1558.390625 1038.5625 L 1551.359375 1034.511719 L 1555.390625 1027.527344 L 1562.410156 1031.578125 Z M 1540.820312 1028.433594 L 1533.800781 1024.386719 L 1537.820312 1017.402344 L 1544.851562 1021.453125 Z M 1523.261719 1018.308594 L 1516.230469 1014.257812 L 1520.261719 1007.277344 L 1527.289062 1011.328125 Z M 1505.691406 1008.183594 L 1498.671875 1004.132812 L 1502.691406 997.148438 L 1509.71875 1001.199219 Z M 1488.128906 998.058594 L 1481.109375 994.007812 L 1485.128906 987.023438 L 1492.160156 991.074219 Z M 1470.570312 987.929688 L 1463.539062 983.882812 L 1467.570312 976.898438 L 1474.589844 980.949219 Z M 1453 977.804688 L 1445.980469 973.753906 L 1450 966.773438 L 1457.03125 970.824219 Z M 1435.441406 967.679688 L 1428.421875 963.628906 L 1432.441406 956.648438 L 1439.46875 960.695312 Z M 1417.878906 957.554688 L 1410.851562 953.503906 L 1414.878906 946.519531 L 1421.898438 950.570312 Z M 1400.320312 947.425781 L 1393.289062 943.378906 L 1397.320312 936.394531 L 1404.339844 940.445312 Z M 1382.75 937.300781 L 1375.730469 933.25 L 1379.75 926.269531 L 1386.78125 930.320312 Z M 1365.191406 927.175781 L 1358.160156 923.125 L 1362.191406 916.144531 L 1369.210938 920.191406 Z M 1347.628906 917.050781 L 1340.601562 913 L 1344.628906 906.015625 L 1351.648438 910.066406 Z M 1330.058594 906.921875 L 1323.039062 902.875 L 1327.058594 895.890625 L 1334.089844 899.941406 Z M 1312.5 896.796875 L 1305.46875 892.746094 L 1309.5 885.765625 L 1316.519531 889.816406 Z M 1292.921875 883.183594 L 1292.910156 875.074219 L 1300.980469 875.066406 L 1300.980469 883.175781 Z M 1292.910156 862.910156 L 1292.898438 854.800781 L 1300.960938 854.792969 L 1300.96875 862.902344 Z M 1292.890625 842.636719 L 1292.890625 834.527344 L 1300.949219 834.519531 L 1300.960938 842.628906 Z M 1292.878906 822.363281 L 1292.878906 814.253906 L 1300.941406 814.246094 L 1300.941406 822.355469 Z M 1292.871094 802.089844 L 1292.871094 793.980469 L 1300.929688 793.972656 L 1300.929688 802.082031 Z M 1292.859375 781.816406 L 1292.851562 773.707031 L 1300.910156 773.699219 L 1300.921875 781.808594 Z M 1292.851562 761.542969 L 1292.839844 753.433594 L 1300.898438 753.425781 L 1300.910156 761.535156 Z M 1292.839844 741.269531 L 1292.828125 733.160156 L 1300.890625 733.152344 L 1300.890625 741.261719 Z M 1292.820312 720.996094 L 1292.820312 712.886719 L 1300.878906 712.878906 L 1300.878906 720.988281 Z M 1292.808594 700.71875 L 1292.808594 692.609375 L 1300.859375 692.605469 L 1300.871094 700.714844 Z M 1292.800781 680.445312 L 1292.789062 672.335938 L 1300.851562 672.332031 L 1300.859375 680.441406 Z M 1292.789062 660.171875 L 1292.78125 652.0625 L 1300.839844 652.058594 L 1300.839844 660.167969 Z M 1292.769531 639.898438 L 1292.769531 631.789062 L 1300.828125 631.785156 L 1300.828125 639.894531 Z M 1292.761719 619.625 L 1292.75 611.515625 L 1300.820312 611.511719 L 1300.820312 619.621094 Z M 1292.75 599.351562 L 1292.738281 591.242188 L 1300.808594 591.238281 L 1300.808594 599.347656 Z M 1292.730469 579.078125 L 1292.730469 570.96875 L 1300.789062 570.964844 L 1300.800781 579.074219 Z M 1303.519531 560.378906 L 1310.539062 556.320312 L 1314.570312 563.296875 L 1307.550781 567.355469 Z M 1321.070312 550.230469 L 1328.089844 546.171875 L 1332.128906 553.148438 L 1325.101562 557.207031 Z M 1338.621094 540.082031 L 1345.640625 536.023438 L 1349.679688 543 L 1342.660156 547.0625 Z M 1356.171875 529.9375 L 1363.191406 525.875 L 1367.230469 532.855469 L 1360.210938 536.914062 Z M 1373.71875 519.789062 L 1380.738281 515.730469 L 1384.78125 522.707031 L 1377.761719 526.765625 Z M 1391.269531 509.640625 L 1398.289062 505.582031 L 1402.328125 512.558594 L 1395.308594 516.617188 Z M 1408.820312 499.492188 L 1415.839844 495.433594 L 1419.878906 502.410156 L 1412.859375 506.472656 Z M 1426.378906 489.347656 L 1433.390625 485.28125 L 1437.429688 492.265625 L 1430.410156 496.324219 Z M 1443.929688 479.199219 L 1450.941406 475.140625 L 1454.980469 482.121094 L 1447.960938 486.179688 Z M 1461.480469 469.050781 L 1468.5 464.988281 L 1472.53125 471.96875 L 1465.511719 476.03125 Z M 1479.03125 458.898438 L 1486.050781 454.839844 L 1490.078125 461.820312 L 1483.058594 465.878906 Z M 1496.578125 448.75 L 1503.601562 444.691406 L 1507.640625 451.679688 L 1500.609375 455.730469 Z M 1514.128906 438.609375 L 1521.148438 434.550781 L 1525.191406 441.53125 L 1518.160156 445.589844 Z M 1531.679688 428.460938 L 1538.699219 424.398438 L 1542.738281 431.378906 L 1535.71875 435.441406 Z M 1549.230469 418.308594 L 1556.25 414.25 L 1560.289062 421.230469 L 1553.269531 425.289062 Z M 1570.808594 408.160156 L 1577.839844 412.210938 L 1573.808594 419.191406 L 1566.789062 415.140625 Z M 1570.808594 408.160156 "/>
<path fill-rule="nonzero" fill="rgb(0%, 0%, 0%)" fill-opacity="1" d="M 1314.089844 574.828125 L 1314.089844 574.832031 L 1320.308594 578.417969 L 1316.761719 584.578125 L 1310.539062 580.992188 Z M 1314.089844 574.828125 "/>
<path fill-rule="nonzero" fill="rgb(0%, 0%, 0%)" fill-opacity="1" d="M 1329.640625 583.796875 L 1329.640625 583.800781 L 1335.871094 587.386719 L 1332.320312 593.546875 L 1326.089844 589.960938 Z M 1329.640625 583.796875 "/>
<path fill-rule="nonzero" fill="rgb(0%, 0%, 0%)" fill-opacity="1" d="M 1345.199219 592.765625 L 1345.199219 592.769531 L 1351.429688 596.355469 L 1347.871094 602.515625 L 1341.648438 598.929688 Z M 1345.199219 592.765625 "/>
<path fill-rule="nonzero" fill="rgb(0%, 0%, 0%)" fill-opacity="1" d="M 1360.761719 601.734375 L 1360.761719 601.738281 L 1366.980469 605.324219 L 1363.429688 611.484375 L 1357.210938 607.898438 Z M 1360.761719 601.734375 "/>
<path fill-rule="nonzero" fill="rgb(0%, 0%, 0%)" fill-opacity="1" d="M 1376.308594 610.703125 L 1376.308594 610.707031 L 1382.539062 614.292969 L 1378.980469 620.453125 L 1372.761719 616.867188 Z M 1376.308594 610.703125 "/>
<path fill-rule="nonzero" fill="rgb(0%, 0%, 0%)" fill-opacity="1" d="M 1391.871094 619.671875 L 1391.871094 619.675781 L 1398.089844 623.261719 L 1394.539062 629.421875 L 1388.320312 625.835938 Z M 1391.871094 619.671875 "/>
<path fill-rule="nonzero" fill="rgb(0%, 0%, 0%)" fill-opacity="1" d="M 1407.429688 628.640625 L 1407.429688 628.644531 L 1413.648438 632.230469 L 1410.101562 638.390625 L 1403.878906 634.804688 Z M 1407.429688 628.640625 "/>
<path fill-rule="nonzero" fill="rgb(0%, 0%, 0%)" fill-opacity="1" d="M 1422.980469 637.609375 L 1422.980469 637.613281 L 1429.210938 641.199219 L 1425.648438 647.359375 L 1419.429688 643.773438 Z M 1422.980469 637.609375 "/>
<path fill-rule="nonzero" fill="rgb(0%, 0%, 0%)" fill-opacity="1" d="M 1438.539062 646.578125 L 1438.539062 646.582031 L 1444.761719 650.167969 L 1441.210938 656.328125 L 1434.980469 652.742188 Z M 1438.539062 646.578125 "/>
<path fill-rule="nonzero" fill="rgb(0%, 0%, 0%)" fill-opacity="1" d="M 1454.089844 655.546875 L 1454.089844 655.550781 L 1460.320312 659.136719 L 1456.769531 665.296875 L 1450.539062 661.710938 Z M 1454.089844 655.546875 "/>
<path fill-rule="nonzero" fill="rgb(0%, 0%, 0%)" fill-opacity="1" d="M 1469.648438 664.515625 L 1469.648438 664.519531 L 1475.871094 668.105469 L 1472.320312 674.265625 L 1466.101562 670.679688 Z M 1469.648438 664.515625 "/>
<path fill-rule="nonzero" fill="rgb(0%, 0%, 0%)" fill-opacity="1" d="M 1485.210938 673.484375 L 1485.210938 673.488281 L 1491.429688 677.074219 L 1487.878906 683.234375 L 1481.660156 679.648438 Z M 1485.210938 673.484375 "/>
<path fill-rule="nonzero" fill="rgb(0%, 0%, 0%)" fill-opacity="1" d="M 1500.761719 682.453125 L 1500.761719 682.457031 L 1506.980469 686.042969 L 1503.429688 692.203125 L 1497.210938 688.617188 Z M 1500.761719 682.453125 "/>
<path fill-rule="nonzero" fill="rgb(0%, 0%, 0%)" fill-opacity="1" d="M 1516.320312 691.421875 L 1516.320312 691.425781 L 1522.539062 695.011719 L 1518.988281 701.171875 L 1512.769531 697.585938 Z M 1516.320312 691.421875 "/>
<path fill-rule="nonzero" fill="rgb(0%, 0%, 0%)" fill-opacity="1" d="M 1531.878906 700.390625 L 1531.878906 700.394531 L 1538.101562 703.980469 L 1534.550781 710.140625 L 1528.320312 706.554688 Z M 1531.878906 700.390625 "/>
<path fill-rule="nonzero" fill="rgb(0%, 0%, 0%)" fill-opacity="1" d="M 1547.429688 709.359375 L 1547.429688 709.363281 L 1553.648438 712.949219 L 1550.101562 719.109375 L 1543.878906 715.523438 Z M 1547.429688 709.359375 "/>
<path fill-rule="nonzero" fill="rgb(0%, 0%, 0%)" fill-opacity="1" d="M 1562.988281 718.328125 L 1562.988281 718.332031 L 1569.210938 721.917969 L 1565.660156 728.078125 L 1559.429688 724.492188 Z M 1562.988281 718.328125 "/>
<path fill-rule="nonzero" fill="rgb(0%, 0%, 0%)" fill-opacity="1" d="M 1574.980469 718.320312 L 1574.980469 718.324219 L 1581.199219 714.726562 L 1584.761719 720.882812 L 1578.539062 724.480469 Z M 1574.980469 718.320312 "/>
<path fill-rule="nonzero" fill="rgb(0%, 0%, 0%)" fill-opacity="1" d="M 1590.53125 709.335938 L 1596.75 705.738281 L 1600.308594 711.894531 L 1594.089844 715.492188 Z M 1590.53125 709.335938 "/>
<path fill-rule="nonzero" fill="rgb(0%, 0%, 0%)" fill-opacity="1" d="M 1606.070312 700.347656 L 1612.289062 696.75 L 1615.851562 702.910156 L 1609.628906 706.503906 Z M 1606.070312 700.347656 "/>
<path fill-rule="nonzero" fill="rgb(0%, 0%, 0%)" fill-opacity="1" d="M 1621.621094 691.359375 L 1621.621094 691.363281 L 1627.839844 687.761719 L 1631.390625 693.921875 L 1625.179688 697.515625 Z M 1621.621094 691.359375 "/>
<path fill-rule="nonzero" fill="rgb(0%, 0%, 0%)" fill-opacity="1" d="M 1637.160156 682.371094 L 1637.160156 682.375 L 1643.378906 678.777344 L 1646.941406 684.933594 L 1640.71875 688.527344 Z M 1637.160156 682.371094 "/>
<path fill-rule="nonzero" fill="rgb(0%, 0%, 0%)" fill-opacity="1" d="M 1652.710938 673.382812 L 1652.710938 673.386719 L 1658.929688 669.789062 L 1662.480469 675.945312 L 1656.269531 679.539062 Z M 1652.710938 673.382812 "/>
<path fill-rule="nonzero" fill="rgb(0%, 0%, 0%)" fill-opacity="1" d="M 1668.25 664.394531 L 1668.25 664.398438 L 1674.46875 660.800781 L 1678.03125 666.957031 L 1671.808594 670.550781 Z M 1668.25 664.394531 "/>
<path fill-rule="nonzero" fill="rgb(0%, 0%, 0%)" fill-opacity="1" d="M 1683.800781 655.40625 L 1683.800781 655.410156 L 1690.019531 651.8125 L 1693.578125 657.96875 L 1687.359375 661.566406 Z M 1683.800781 655.40625 "/>
<path fill-rule="nonzero" fill="rgb(0%, 0%, 0%)" fill-opacity="1" d="M 1699.339844 646.417969 L 1699.339844 646.421875 L 1705.558594 642.824219 L 1709.121094 648.980469 L 1702.898438 652.578125 Z M 1699.339844 646.417969 "/>
<path fill-rule="nonzero" fill="rgb(0%, 0%, 0%)" fill-opacity="1" d="M 1714.890625 637.433594 L 1721.109375 633.835938 L 1724.671875 639.992188 L 1718.449219 643.589844 Z M 1714.890625 637.433594 "/>
<path fill-rule="nonzero" fill="rgb(0%, 0%, 0%)" fill-opacity="1" d="M 1730.429688 628.445312 L 1736.648438 624.847656 L 1740.210938 631.007812 L 1733.988281 634.601562 Z M 1730.429688 628.445312 "/>
<path fill-rule="nonzero" fill="rgb(0%, 0%, 0%)" fill-opacity="1" d="M 1745.980469 619.457031 L 1745.980469 619.460938 L 1752.199219 615.863281 L 1755.761719 622.019531 L 1749.539062 625.613281 Z M 1745.980469 619.457031 "/>
<path fill-rule="nonzero" fill="rgb(0%, 0%, 0%)" fill-opacity="1" d="M 1761.519531 610.46875 L 1761.519531 610.472656 L 1767.738281 606.875 L 1771.300781 613.03125 L 1765.089844 616.625 Z M 1761.519531 610.46875 "/>
<path fill-rule="nonzero" fill="rgb(0%, 0%, 0%)" fill-opacity="1" d="M 1777.070312 601.480469 L 1777.070312 601.484375 L 1783.289062 597.886719 L 1786.851562 604.042969 L 1780.628906 607.636719 Z M 1777.070312 601.480469 "/>
<path fill-rule="nonzero" fill="rgb(0%, 0%, 0%)" fill-opacity="1" d="M 1792.609375 592.492188 L 1792.609375 592.496094 L 1798.828125 588.898438 L 1802.390625 595.054688 L 1796.179688 598.648438 Z M 1792.609375 592.492188 "/>
<path fill-rule="nonzero" fill="rgb(0%, 0%, 0%)" fill-opacity="1" d="M 1808.160156 583.503906 L 1808.160156 583.507812 L 1814.378906 579.910156 L 1817.941406 586.066406 L 1811.71875 589.664062 Z M 1808.160156 583.503906 "/>
<path fill-rule="nonzero" fill="rgb(0%, 0%, 0%)" fill-opacity="1" d="M 1823.710938 574.519531 L 1829.921875 570.921875 L 1833.480469 577.078125 L 1827.269531 580.675781 Z M 1823.710938 574.519531 "/>
<path fill-rule="nonzero" fill="rgb(0%, 0%, 0%)" fill-opacity="1" d="M 1572.039062 741.605469 L 1572.050781 747.890625 L 1565.960938 747.894531 L 1565.960938 741.609375 Z M 1572.039062 741.605469 "/>
<path fill-rule="nonzero" fill="rgb(0%, 0%, 0%)" fill-opacity="1" d="M 1572.058594 757.316406 L 1572.058594 763.601562 L 1565.96875 763.609375 L 1565.960938 757.320312 Z M 1572.058594 757.316406 "/>
<path fill-rule="nonzero" fill="rgb(0%, 0%, 0%)" fill-opacity="1" d="M 1572.058594 773.027344 L 1572.058594 773.03125 L 1572.070312 779.3125 L 1565.980469 779.320312 L 1565.96875 773.03125 Z M 1572.058594 773.027344 "/>
<path fill-rule="nonzero" fill="rgb(0%, 0%, 0%)" fill-opacity="1" d="M 1572.070312 788.738281 L 1572.070312 795.023438 L 1565.988281 795.03125 L 1565.980469 788.742188 Z M 1572.070312 788.738281 "/>
<path fill-rule="nonzero" fill="rgb(0%, 0%, 0%)" fill-opacity="1" d="M 1572.078125 804.453125 L 1572.089844 810.738281 L 1566 810.742188 L 1565.988281 804.457031 Z M 1572.078125 804.453125 "/>
<path fill-rule="nonzero" fill="rgb(0%, 0%, 0%)" fill-opacity="1" d="M 1572.089844 820.164062 L 1572.089844 826.449219 L 1566.011719 826.453125 L 1566 820.167969 Z M 1572.089844 820.164062 "/>
<path fill-rule="nonzero" fill="rgb(0%, 0%, 0%)" fill-opacity="1" d="M 1572.101562 835.875 L 1572.101562 835.878906 L 1572.109375 842.160156 L 1566.019531 842.167969 L 1566.011719 835.878906 Z M 1572.101562 835.875 "/>
<path fill-rule="nonzero" fill="rgb(0%, 0%, 0%)" fill-opacity="1" d="M 1572.109375 851.585938 L 1572.109375 857.871094 L 1566.03125 857.878906 L 1566.019531 851.589844 Z M 1572.109375 851.585938 "/>
<path fill-rule="nonzero" fill="rgb(0%, 0%, 0%)" fill-opacity="1" d="M 1572.121094 867.300781 L 1572.128906 873.585938 L 1566.039062 873.589844 L 1566.03125 867.304688 Z M 1572.121094 867.300781 "/>
<path fill-rule="nonzero" fill="rgb(0%, 0%, 0%)" fill-opacity="1" d="M 1572.128906 883.011719 L 1572.128906 889.296875 L 1566.039062 889.300781 L 1566.039062 883.015625 Z M 1572.128906 883.011719 "/>
<path fill-rule="nonzero" fill="rgb(0%, 0%, 0%)" fill-opacity="1" d="M 1572.140625 898.722656 L 1572.140625 905.007812 L 1566.058594 905.015625 L 1566.050781 898.726562 Z M 1572.140625 898.722656 "/>
<path fill-rule="nonzero" fill="rgb(0%, 0%, 0%)" fill-opacity="1" d="M 1572.148438 914.433594 L 1572.148438 920.71875 L 1566.058594 920.726562 L 1566.058594 914.4375 Z M 1572.148438 914.433594 "/>
<path fill-rule="nonzero" fill="rgb(0%, 0%, 0%)" fill-opacity="1" d="M 1572.160156 930.148438 L 1572.160156 936.429688 L 1566.070312 936.4375 L 1566.070312 930.152344 Z M 1572.160156 930.148438 "/>
<path fill-rule="nonzero" fill="rgb(0%, 0%, 0%)" fill-opacity="1" d="M 1572.171875 945.859375 L 1572.171875 952.144531 L 1566.078125 952.148438 L 1566.078125 945.863281 Z M 1572.171875 945.859375 "/>
<path fill-rule="nonzero" fill="rgb(0%, 0%, 0%)" fill-opacity="1" d="M 1572.179688 961.570312 L 1572.179688 967.855469 L 1566.089844 967.863281 L 1566.089844 961.574219 Z M 1572.179688 961.570312 "/>
<path fill-rule="nonzero" fill="rgb(0%, 0%, 0%)" fill-opacity="1" d="M 1572.191406 977.28125 L 1572.191406 983.566406 L 1566.101562 983.574219 L 1566.101562 977.285156 Z M 1572.191406 977.28125 "/>
<path fill-rule="nonzero" fill="rgb(0%, 0%, 0%)" fill-opacity="1" d="M 1572.191406 992.996094 L 1572.199219 999.277344 L 1566.109375 999.285156 L 1566.109375 992.996094 Z M 1572.191406 992.996094 "/>
<path fill-rule="nonzero" fill="rgb(0%, 0%, 0%)" fill-opacity="1" d="M 1572.210938 1008.707031 L 1572.210938 1014.992188 L 1566.121094 1014.996094 L 1566.121094 1008.710938 Z M 1572.210938 1008.707031 "/>
<path fill-rule="nonzero" fill="rgb(0%, 0%, 0%)" fill-opacity="1" d="M 1572.210938 1024.417969 L 1572.210938 1024.421875 L 1572.21875 1030.703125 L 1566.128906 1030.710938 L 1566.128906 1024.421875 Z M 1572.210938 1024.417969 "/>
<path fill-rule="nonzero" fill="rgb(0%, 0%, 0%)" fill-opacity="1" d="M 970.109375 422.648438 C 975.804688 422.648438 980.425781 427.269531 980.429688 432.960938 C 980.433594 438.660156 975.816406 443.28125 970.121094 443.28125 C 964.421875 443.289062 959.800781 438.679688 959.796875 432.980469 C 959.792969 427.28125 964.410156 422.660156 970.109375 422.648438 Z M 1006.410156 443.578125 C 1012.101562 443.578125 1016.730469 448.191406 1016.730469 453.890625 C 1016.730469 459.589844 1012.121094 464.210938 1006.421875 464.210938 C 1000.71875 464.21875 996.097656 459.601562 996.09375 453.898438 C 996.089844 448.210938 1000.710938 443.578125 1006.410156 443.578125 Z M 1042.699219 464.511719 C 1048.398438 464.5 1053.019531 469.121094 1053.03125 474.820312 C 1053.03125 480.519531 1048.410156 485.140625 1042.710938 485.140625 C 1037.019531 485.140625 1032.390625 480.53125 1032.390625 474.828125 C 1032.390625 469.128906 1037 464.511719 1042.699219 464.511719 Z M 1079 485.429688 C 1084.699219 485.429688 1089.320312 490.046875 1089.320312 495.746094 C 1089.328125 501.441406 1084.710938 506.066406 1079.011719 506.066406 C 1073.320312 506.070312 1068.691406 501.457031 1068.691406 495.757812 C 1068.691406 490.058594 1073.308594 485.441406 1079 485.429688 Z M 1115.300781 506.363281 C 1121 506.359375 1125.621094 510.972656 1125.621094 516.671875 C 1125.628906 522.371094 1121.011719 526.992188 1115.308594 526.996094 C 1109.609375 527 1104.988281 522.382812 1104.988281 516.683594 C 1104.980469 510.988281 1109.601562 506.363281 1115.300781 506.363281 Z M 1151.601562 527.289062 C 1157.289062 527.285156 1161.910156 531.902344 1161.921875 537.597656 C 1161.921875 543.296875 1157.308594 547.917969 1151.609375 547.921875 C 1145.910156 547.925781 1141.289062 543.308594 1141.289062 537.613281 C 1141.28125 531.914062 1145.898438 527.292969 1151.601562 527.289062 Z M 1187.890625 548.214844 C 1193.589844 548.210938 1198.210938 552.828125 1198.210938 558.527344 C 1198.21875 564.222656 1193.609375 568.847656 1187.910156 568.847656 C 1182.210938 568.851562 1177.589844 564.238281 1177.578125 558.539062 C 1177.578125 552.839844 1182.191406 548.21875 1187.890625 548.214844 Z M 1206.058594 579.628906 C 1211.75 579.625 1216.378906 584.242188 1216.378906 589.9375 C 1216.378906 595.636719 1211.769531 600.257812 1206.070312 600.261719 C 1200.371094 600.265625 1195.75 595.648438 1195.738281 589.953125 C 1195.738281 584.253906 1200.359375 579.632812 1206.058594 579.628906 Z M 1206.078125 621.527344 C 1211.78125 621.523438 1216.398438 626.140625 1216.398438 631.839844 C 1216.410156 637.535156 1211.789062 642.15625 1206.089844 642.160156 C 1200.390625 642.164062 1195.769531 637.546875 1195.769531 631.851562 C 1195.769531 626.152344 1200.378906 621.53125 1206.078125 621.527344 Z M 1206.109375 663.425781 C 1211.808594 663.421875 1216.429688 668.039062 1216.429688 673.738281 C 1216.429688 679.433594 1211.820312 684.054688 1206.121094 684.058594 C 1200.421875 684.0625 1195.800781 679.445312 1195.789062 673.75 C 1195.789062 668.050781 1200.410156 663.429688 1206.109375 663.425781 Z M 1206.128906 705.324219 C 1211.828125 705.320312 1216.449219 709.9375 1216.449219 715.636719 C 1216.460938 721.332031 1211.839844 725.953125 1206.140625 725.957031 C 1200.441406 725.960938 1195.820312 721.34375 1195.820312 715.648438 C 1195.820312 709.949219 1200.429688 705.328125 1206.128906 705.324219 Z M 1206.160156 747.222656 C 1211.851562 747.21875 1216.480469 751.835938 1216.480469 757.535156 C 1216.480469 763.230469 1211.871094 767.851562 1206.171875 767.855469 C 1200.46875 767.859375 1195.851562 763.242188 1195.839844 757.546875 C 1195.839844 751.847656 1200.460938 747.226562 1206.160156 747.222656 Z M 1206.179688 789.121094 C 1211.878906 789.117188 1216.5 793.734375 1216.5 799.433594 C 1216.511719 805.128906 1211.890625 809.75 1206.191406 809.753906 C 1200.5 809.757812 1195.878906 805.144531 1195.871094 799.445312 C 1195.871094 793.746094 1200.480469 789.125 1206.179688 789.121094 Z M 1206.210938 831.019531 C 1211.910156 831.015625 1216.53125 835.632812 1216.53125 841.332031 C 1216.53125 847.027344 1211.921875 851.652344 1206.21875 851.652344 C 1200.519531 851.65625 1195.898438 847.042969 1195.890625 841.34375 C 1195.890625 835.644531 1200.511719 831.023438 1206.210938 831.019531 Z M 1206.230469 872.917969 C 1211.929688 872.914062 1216.550781 877.53125 1216.558594 883.230469 C 1216.558594 888.925781 1211.941406 893.546875 1206.25 893.550781 C 1200.550781 893.554688 1195.929688 888.941406 1195.921875 883.242188 C 1195.921875 877.542969 1200.539062 872.921875 1206.230469 872.917969 Z M 1169.960938 893.890625 C 1175.660156 893.886719 1180.28125 898.503906 1180.28125 904.199219 C 1180.289062 909.898438 1175.671875 914.519531 1169.96875 914.523438 C 1164.269531 914.527344 1159.648438 909.910156 1159.648438 904.214844 C 1159.640625 898.515625 1164.261719 893.894531 1169.960938 893.890625 Z M 1133.691406 914.863281 C 1139.390625 914.859375 1144.011719 919.472656 1144.011719 925.171875 C 1144.019531 930.871094 1139.398438 935.492188 1133.699219 935.496094 C 1128 935.5 1123.378906 930.882812 1123.378906 925.183594 C 1123.378906 919.488281 1127.988281 914.863281 1133.691406 914.863281 Z M 1097.410156 935.832031 C 1103.109375 935.828125 1107.730469 940.445312 1107.738281 946.144531 C 1107.738281 951.839844 1103.128906 956.464844 1097.429688 956.464844 C 1091.730469 956.46875 1087.109375 951.855469 1087.109375 946.15625 C 1087.101562 940.457031 1091.71875 935.835938 1097.410156 935.832031 Z M 1061.140625 956.804688 C 1066.839844 956.800781 1071.460938 961.417969 1071.460938 967.113281 C 1071.46875 972.8125 1066.859375 977.433594 1061.160156 977.4375 C 1055.460938 977.441406 1050.839844 972.824219 1050.828125 967.128906 C 1050.828125 961.429688 1055.441406 956.808594 1061.140625 956.804688 Z M 1024.871094 977.777344 C 1030.570312 977.773438 1035.191406 982.386719 1035.191406 988.085938 C 1035.199219 993.785156 1030.578125 998.40625 1024.878906 998.410156 C 1019.179688 998.414062 1014.558594 993.796875 1014.558594 988.097656 C 1014.558594 982.402344 1019.171875 977.777344 1024.871094 977.777344 Z M 988.597656 998.746094 C 994.296875 998.742188 998.917969 1003.359375 998.921875 1009.058594 C 998.925781 1014.753906 994.308594 1019.378906 988.609375 1019.378906 C 982.914062 1019.382812 978.292969 1014.769531 978.289062 1009.070312 C 978.285156 1003.371094 982.902344 998.75 988.597656 998.746094 Z M 952.328125 1019.71875 C 958.023438 1019.714844 962.644531 1024.332031 962.648438 1030.027344 C 962.652344 1035.726562 958.035156 1040.347656 952.339844 1040.351562 C 946.640625 1040.355469 942.019531 1035.738281 942.015625 1030.042969 C 942.011719 1024.34375 946.628906 1019.722656 952.328125 1019.71875 Z M 916.042969 1019.742188 C 921.742188 1019.738281 926.363281 1024.355469 926.367188 1030.050781 C 926.371094 1035.75 921.753906 1040.371094 916.054688 1040.375 C 910.359375 1040.378906 905.734375 1035.761719 905.730469 1030.0625 C 905.730469 1024.367188 910.34375 1019.746094 916.042969 1019.742188 Z M 879.746094 998.8125 C 885.441406 998.808594 890.066406 1003.425781 890.066406 1009.125 C 890.070312 1014.820312 885.457031 1019.445312 879.757812 1019.449219 C 874.058594 1019.449219 869.4375 1014.835938 869.433594 1009.136719 C 869.429688 1003.4375 874.046875 998.816406 879.746094 998.8125 Z M 843.449219 977.886719 C 849.144531 977.882812 853.765625 982.5 853.769531 988.195312 C 853.773438 993.894531 849.15625 998.515625 843.460938 998.519531 C 837.761719 998.523438 833.140625 993.90625 833.136719 988.210938 C 833.132812 982.511719 837.75 977.890625 843.449219 977.886719 Z M 807.148438 956.960938 C 812.847656 956.957031 817.46875 961.570312 817.472656 967.269531 C 817.476562 972.96875 812.859375 977.589844 807.164062 977.59375 C 801.464844 977.597656 796.84375 972.980469 796.839844 967.28125 C 796.835938 961.585938 801.453125 956.964844 807.148438 956.960938 Z M 770.851562 936.03125 C 776.550781 936.027344 781.171875 940.644531 781.175781 946.34375 C 781.179688 952.039062 776.5625 956.664062 770.863281 956.664062 C 765.167969 956.667969 760.546875 952.054688 760.542969 946.355469 C 760.539062 940.65625 765.15625 936.035156 770.851562 936.03125 Z M 734.554688 915.105469 C 740.253906 915.101562 744.875 919.71875 744.878906 925.414062 C 744.882812 931.113281 740.265625 935.734375 734.566406 935.738281 C 728.871094 935.742188 724.246094 931.125 724.242188 925.429688 C 724.242188 919.730469 728.855469 915.109375 734.554688 915.105469 Z M 698.257812 894.179688 C 703.953125 894.175781 708.578125 898.789062 708.582031 904.488281 C 708.582031 910.1875 703.96875 914.808594 698.269531 914.8125 C 692.570312 914.816406 687.949219 910.199219 687.945312 904.5 C 687.941406 898.804688 692.558594 894.179688 698.257812 894.179688 Z M 661.960938 873.25 C 667.660156 873.246094 672.28125 877.863281 672.285156 883.5625 C 672.285156 889.257812 667.671875 893.882812 661.972656 893.882812 C 656.273438 893.886719 651.652344 889.273438 651.648438 883.574219 C 651.648438 877.875 656.261719 873.253906 661.960938 873.25 Z M 661.933594 831.351562 C 667.632812 831.347656 672.253906 835.964844 672.257812 841.664062 C 672.261719 847.359375 667.644531 851.984375 661.949219 851.984375 C 656.25 851.988281 651.628906 847.375 651.625 841.675781 C 651.621094 835.976562 656.238281 831.355469 661.933594 831.351562 Z M 661.910156 789.453125 C 667.609375 789.449219 672.230469 794.066406 672.234375 799.765625 C 672.234375 805.460938 667.621094 810.085938 661.921875 810.085938 C 656.222656 810.089844 651.601562 805.476562 651.597656 799.777344 C 651.59375 794.078125 656.210938 789.457031 661.910156 789.453125 Z M 661.882812 747.554688 C 667.582031 747.550781 672.203125 752.167969 672.207031 757.867188 C 672.210938 763.5625 667.59375 768.183594 661.894531 768.1875 C 656.199219 768.191406 651.578125 763.578125 651.574219 757.878906 C 651.570312 752.179688 656.1875 747.558594 661.882812 747.554688 Z M 661.859375 705.65625 C 667.554688 705.652344 672.179688 710.269531 672.183594 715.96875 C 672.183594 721.664062 667.570312 726.285156 661.871094 726.289062 C 656.171875 726.292969 651.550781 721.675781 651.546875 715.980469 C 651.542969 710.28125 656.160156 705.660156 661.859375 705.65625 Z M 661.832031 663.757812 C 667.53125 663.753906 672.152344 668.371094 672.15625 674.070312 C 672.160156 679.765625 667.542969 684.386719 661.847656 684.390625 C 656.148438 684.394531 651.527344 679.777344 651.523438 674.082031 C 651.519531 668.382812 656.136719 663.761719 661.832031 663.757812 Z M 661.808594 621.859375 C 667.503906 621.855469 672.128906 626.472656 672.132812 632.171875 C 672.132812 637.867188 667.519531 642.488281 661.820312 642.492188 C 656.121094 642.496094 651.5 637.878906 651.496094 632.183594 C 651.492188 626.484375 656.109375 621.863281 661.808594 621.859375 Z M 661.78125 579.960938 C 667.480469 579.957031 672.101562 584.574219 672.105469 590.269531 C 672.109375 595.96875 667.492188 600.589844 661.796875 600.59375 C 656.097656 600.597656 651.476562 595.980469 651.472656 590.285156 C 651.46875 584.585938 656.085938 579.964844 661.78125 579.960938 Z M 679.90625 548.527344 C 685.605469 548.523438 690.226562 553.140625 690.230469 558.835938 C 690.230469 564.535156 685.617188 569.15625 679.917969 569.160156 C 674.21875 569.164062 669.597656 564.546875 669.59375 558.847656 C 669.589844 553.152344 674.207031 548.53125 679.90625 548.527344 Z M 716.179688 527.554688 C 721.875 527.550781 726.496094 532.167969 726.5 537.867188 C 726.503906 543.5625 721.886719 548.183594 716.191406 548.1875 C 710.492188 548.191406 705.871094 543.574219 705.867188 537.878906 C 705.863281 532.179688 710.480469 527.558594 716.179688 527.554688 Z M 752.449219 506.582031 C 758.148438 506.578125 762.769531 511.195312 762.773438 516.894531 C 762.777344 522.589844 758.160156 527.214844 752.460938 527.21875 C 746.765625 527.21875 742.144531 522.605469 742.140625 516.90625 C 742.136719 511.207031 746.753906 506.585938 752.449219 506.582031 Z M 788.722656 485.609375 C 794.421875 485.609375 799.042969 490.222656 799.046875 495.921875 C 799.046875 501.621094 794.433594 506.242188 788.734375 506.246094 C 783.035156 506.25 778.414062 501.632812 778.410156 495.933594 C 778.40625 490.238281 783.023438 485.621094 788.722656 485.609375 Z M 824.996094 464.640625 C 830.691406 464.640625 835.3125 469.25 835.316406 474.949219 C 835.320312 480.648438 830.703125 485.269531 825.007812 485.269531 C 819.308594 485.28125 814.6875 480.660156 814.683594 474.960938 C 814.679688 469.269531 819.296875 464.640625 824.996094 464.640625 Z M 861.265625 443.671875 C 866.964844 443.660156 871.585938 448.28125 871.589844 453.980469 C 871.59375 459.679688 866.976562 464.300781 861.28125 464.300781 C 855.582031 464.308594 850.960938 459.691406 850.957031 453.988281 C 850.953125 448.289062 855.570312 443.671875 861.265625 443.671875 Z M 897.539062 422.699219 C 903.238281 422.691406 907.859375 427.308594 907.863281 433.011719 C 907.867188 438.710938 903.25 443.328125 897.550781 443.328125 C 891.855469 443.339844 887.230469 438.71875 887.230469 433.019531 C 887.226562 427.320312 891.839844 422.699219 897.539062 422.699219 Z M 897.539062 422.699219 "/>
<path fill-rule="nonzero" fill="rgb(0%, 0%, 0%)" fill-opacity="1" d="M 698.0625 579.941406 C 703.761719 579.9375 708.382812 584.554688 708.386719 590.25 C 708.390625 595.949219 703.773438 600.570312 698.078125 600.574219 C 692.378906 600.578125 687.757812 595.960938 687.753906 590.261719 C 687.75 584.566406 692.367188 579.945312 698.0625 579.941406 Z M 734.363281 600.867188 C 740.058594 600.863281 744.683594 605.480469 744.683594 611.179688 C 744.6875 616.875 740.074219 621.496094 734.375 621.5 C 728.675781 621.503906 724.054688 616.886719 724.050781 611.191406 C 724.046875 605.492188 728.664062 600.871094 734.363281 600.867188 Z M 770.660156 621.792969 C 776.359375 621.789062 780.980469 626.40625 780.984375 632.105469 C 780.984375 637.800781 776.371094 642.425781 770.671875 642.429688 C 764.976562 642.429688 760.351562 637.816406 760.347656 632.117188 C 760.347656 626.417969 764.960938 621.796875 770.660156 621.792969 Z M 806.957031 642.722656 C 812.65625 642.71875 817.277344 647.332031 817.28125 653.03125 C 817.285156 658.730469 812.667969 663.351562 806.96875 663.355469 C 801.273438 663.359375 796.652344 658.742188 796.648438 653.042969 C 796.644531 647.347656 801.257812 642.722656 806.957031 642.722656 Z M 843.253906 663.648438 C 848.953125 663.644531 853.574219 668.261719 853.578125 673.957031 C 853.582031 679.65625 848.964844 684.277344 843.269531 684.28125 C 837.570312 684.285156 832.949219 679.667969 832.945312 673.972656 C 832.941406 668.273438 837.558594 663.652344 843.253906 663.648438 Z M 879.554688 684.574219 C 885.25 684.570312 889.871094 689.1875 889.875 694.886719 C 889.878906 700.582031 885.261719 705.203125 879.566406 705.207031 C 873.867188 705.210938 869.246094 700.59375 869.242188 694.898438 C 869.238281 689.199219 873.855469 684.578125 879.554688 684.574219 Z M 915.851562 705.5 C 921.546875 705.496094 926.171875 710.113281 926.171875 715.8125 C 926.175781 721.511719 921.5625 726.132812 915.863281 726.136719 C 910.164062 726.140625 905.542969 721.523438 905.539062 715.824219 C 905.535156 710.125 910.152344 705.503906 915.851562 705.5 Z M 952.136719 705.480469 C 957.835938 705.476562 962.457031 710.09375 962.460938 715.789062 C 962.464844 721.488281 957.847656 726.109375 952.148438 726.113281 C 946.449219 726.117188 941.828125 721.5 941.824219 715.804688 C 941.824219 710.105469 946.4375 705.484375 952.136719 705.480469 Z M 988.410156 684.507812 C 994.105469 684.503906 998.726562 689.121094 998.730469 694.820312 C 998.734375 700.515625 994.117188 705.140625 988.421875 705.140625 C 982.722656 705.144531 978.101562 700.53125 978.097656 694.832031 C 978.09375 689.132812 982.710938 684.511719 988.410156 684.507812 Z M 1024.679688 663.535156 C 1030.378906 663.535156 1035 668.148438 1035 673.847656 C 1035.011719 679.546875 1030.390625 684.167969 1024.691406 684.171875 C 1019 684.175781 1014.378906 679.558594 1014.371094 673.859375 C 1014.371094 668.164062 1018.980469 663.539062 1024.679688 663.535156 Z M 1060.949219 642.566406 C 1066.648438 642.5625 1071.269531 647.179688 1071.28125 652.875 C 1071.28125 658.574219 1066.660156 663.195312 1060.960938 663.199219 C 1055.269531 663.203125 1050.640625 658.585938 1050.640625 652.886719 C 1050.640625 647.191406 1055.25 642.570312 1060.949219 642.566406 Z M 1097.230469 621.59375 C 1102.921875 621.589844 1107.539062 626.207031 1107.550781 631.90625 C 1107.550781 637.601562 1102.941406 642.222656 1097.238281 642.226562 C 1091.539062 642.230469 1086.921875 637.613281 1086.910156 631.917969 C 1086.910156 626.21875 1091.53125 621.597656 1097.230469 621.59375 Z M 1133.5 600.621094 C 1139.191406 600.617188 1143.820312 605.234375 1143.820312 610.933594 C 1143.820312 616.628906 1139.210938 621.253906 1133.511719 621.257812 C 1127.808594 621.257812 1123.191406 616.644531 1123.191406 610.945312 C 1123.179688 605.246094 1127.800781 600.625 1133.5 600.621094 Z M 1169.769531 579.652344 C 1175.46875 579.648438 1180.089844 584.261719 1180.089844 589.960938 C 1180.101562 595.660156 1175.480469 600.28125 1169.78125 600.285156 C 1164.089844 600.289062 1159.460938 595.671875 1159.460938 589.972656 C 1159.460938 584.277344 1164.070312 579.65625 1169.769531 579.652344 Z M 1169.769531 579.652344 "/>
<path fill-rule="nonzero" fill="rgb(0%, 0%, 0%)" fill-opacity="1" d="M 935.628906 410.011719 L 935.628906 410.019531 L 935.628906 410.011719 C 941.328125 410.011719 945.949219 414.621094 945.953125 420.320312 C 945.957031 426.019531 941.339844 430.640625 935.644531 430.640625 L 935.644531 430.648438 L 935.644531 430.640625 C 929.945312 430.648438 925.324219 426.03125 925.320312 420.339844 C 925.316406 414.640625 929.933594 410.019531 935.628906 410.011719 Z M 935.628906 410.011719 "/>
<path fill-rule="nonzero" fill="rgb(0%, 0%, 0%)" fill-opacity="1" d="M 934.839844 768.347656 L 934.839844 768.351562 L 934.839844 768.347656 C 940.535156 768.34375 945.160156 772.960938 945.164062 778.660156 C 945.164062 784.355469 940.550781 788.976562 934.851562 788.980469 L 934.851562 788.984375 L 934.851562 788.980469 C 929.152344 788.984375 924.53125 784.367188 924.527344 778.671875 C 924.527344 772.972656 929.140625 768.351562 934.839844 768.347656 Z M 934.839844 768.347656 "/>
<path fill-rule="nonzero" fill="rgb(0%, 0%, 0%)" fill-opacity="1" d="M 934.054688 805.75 C 939.753906 805.746094 944.375 810.359375 944.378906 816.058594 C 944.382812 821.757812 939.765625 826.378906 934.066406 826.382812 C 928.371094 826.386719 923.75 821.769531 923.746094 816.070312 C 923.742188 810.375 928.359375 805.75 934.054688 805.75 Z M 934.054688 805.75 "/>
<path fill-rule="nonzero" fill="rgb(0%, 0%, 0%)" fill-opacity="1" d="M 934.082031 850.640625 C 939.78125 850.636719 944.402344 855.253906 944.40625 860.949219 C 944.410156 866.648438 939.792969 871.269531 934.09375 871.273438 L 934.09375 871.277344 L 934.09375 871.273438 C 928.398438 871.277344 923.773438 866.660156 923.773438 860.960938 C 923.769531 855.265625 928.386719 850.644531 934.082031 850.640625 Z M 934.082031 850.640625 "/>
<path fill-rule="nonzero" fill="rgb(0%, 0%, 0%)" fill-opacity="1" d="M 934.109375 895.53125 L 934.109375 895.535156 L 934.109375 895.53125 C 939.808594 895.527344 944.429688 900.144531 944.433594 905.839844 C 944.4375 911.539062 939.820312 916.160156 934.121094 916.164062 L 934.121094 916.167969 L 934.121094 916.164062 C 928.425781 916.167969 923.804688 911.550781 923.800781 905.855469 C 923.796875 900.15625 928.410156 895.535156 934.109375 895.53125 Z M 934.109375 895.53125 "/>
<path fill-rule="nonzero" fill="rgb(0%, 0%, 0%)" fill-opacity="1" d="M 934.136719 940.421875 L 934.136719 940.425781 L 934.136719 940.421875 C 939.835938 940.417969 944.457031 945.035156 944.460938 950.734375 C 944.464844 956.429688 939.847656 961.050781 934.148438 961.054688 L 934.148438 961.058594 L 934.148438 961.054688 C 928.453125 961.058594 923.832031 956.441406 923.828125 950.746094 C 923.824219 945.046875 928.4375 940.425781 934.136719 940.421875 Z M 934.136719 940.421875 "/>
<path fill-rule="nonzero" fill="rgb(0%, 0%, 0%)" fill-opacity="1" d="M 934.164062 985.3125 L 934.164062 985.316406 L 934.164062 985.3125 C 939.863281 985.308594 944.484375 989.925781 944.488281 995.625 C 944.492188 1001.320312 939.875 1005.945312 934.175781 1005.945312 L 934.175781 1005.949219 L 934.175781 1005.945312 C 928.480469 1005.949219 923.855469 1001.335938 923.855469 995.636719 C 923.851562 989.9375 928.464844 985.316406 934.164062 985.3125 Z M 934.164062 985.3125 "/>
<path fill-rule="nonzero" fill="rgb(0%, 0%, 0%)" fill-opacity="1" d="M 933.921875 730.960938 L 933.921875 730.964844 L 933.921875 730.960938 C 939.621094 730.957031 944.242188 735.574219 944.246094 741.273438 C 944.25 746.96875 939.632812 751.589844 933.9375 751.59375 L 933.9375 751.597656 L 933.9375 751.59375 C 928.238281 751.597656 923.617188 746.980469 923.613281 741.285156 C 923.609375 735.585938 928.226562 730.964844 933.921875 730.960938 Z M 933.921875 730.960938 "/>
</svg>
